Patient4_TMGait_0pt3_01_left_26_EMG.mot
version=1
nRows=23
nColumns=33
inDegrees=no
endheader
time	1LAddLong	2LGlutMax	3LGlutMed	4LIliopsoas	5LSemiMemb	6LBicFemLong	7LRecFem	8LVastMed	9LVastLat	10LGasMed	11LTibAnt	12lTibPost	13LPeroneusLong	14LSol	15LExtDigLong	16LFlexDigLong	17RAddLong	18RGlutMax	19RGlutMed	20RIliopsoas	21RSemiMemb	22RBicFemLong	23RRecFem	24RVastMed	25RVastLat	26RGasMed	27RTibAnt	28RTibPost	29RPeroneusLong	30RSol	31RExtDigLong	32RFlexDigLong
50.225	0.00412	-0.12283	0.053101	0.019379	0.080566	-0.041504	0.069275	0.000458	0.099182	-0.42877	0.02594	0.029297	-0.09613	0.002289	-0.028534	-0.014801	0.01297	-0.071259	0.27527	-0.018005	0.11932	0.005798	0.032959	0.023499	0.12573	-0.010223	0.075073	0.009613	-0.008087	0.017548	-0.007477	-0.014496
50.226	0.001373	-0.10864	0.13016	0.00351	0.065918	-0.028076	0.10086	-0.001068	0.091095	-0.47485	0.009766	0.019684	-0.080719	0.14297	-0.011597	-0.030823	-0.02243	-0.091858	0.29129	0.023651	0.12848	0.007782	-0.18158	0.14099	0.29221	-0.010529	0.13199	0.011597	-0.027924	0.05127	-0.00412	0.000305
50.227	-0.056152	-0.076904	0.085144	0.017395	0.029144	-0.15259	0.090332	0.004578	0.037842	-0.51392	0.003357	0.008545	-0.046844	0.17273	-0.001984	-0.028534	-0.049133	-0.085907	0.17731	0.062256	0.20081	0.030518	-0.18219	0.04715	0.28442	-0.00885	0.20798	0.003662	-0.038757	0.011292	-0.002747	-0.005035
50.228	-0.072021	-0.10468	0.039215	0.006714	0.022736	-0.2298	0.072174	0.002594	0.012817	-0.25574	-0.006409	0.019989	0.083923	0.11398	0.006714	0.028992	-0.042419	-0.090637	0.087433	0.021667	0.36499	0.039063	-0.17944	0.080566	0.31174	-0.019226	0.28839	0.012054	-0.012054	-0.008087	-0.003052	-0.003967
50.229	0.030518	-0.11795	-0.00824	-0.007324	0.02533	-0.17731	0.04303	0.00351	0.0737	-0.233	0.026855	0.006866	0.1059	0.1178	0.001221	0.04425	-0.003967	-0.1149	0.068054	-0.019531	0.38971	0.059814	-0.16678	0.18158	0.30334	-0.013885	0.53299	0.014801	-0.043793	-0.036011	-0.001221	0.000153
50.23	-0.007477	-0.09079	0.043182	0.002594	0.039673	-0.12528	0.019531	-0.011597	0.13687	-0.21088	0.011902	0.003052	-0.019379	0.13977	0.00946	0.004578	0.025635	-0.083618	0.059814	-0.005798	0.39307	0.022583	-0.079346	0.1091	0.1355	-0.009766	0.86914	0.014191	-0.036163	-0.053253	-0.001678	-0.003662
50.231	0.016327	-0.11688	0.022583	0.012054	0.008087	-0.065155	0.086212	-0.010834	0.078583	-0.11841	-0.000916	0.004425	0.004425	0.046082	0.022278	-0.005798	0.031433	-0.054626	0.094452	-0.041351	0.30243	0.028839	0.08728	0.061951	-0.13886	-0.004883	0.98007	0.011292	0.052185	-0.10452	-0.00061	-0.001831
50.232	-0.006256	-0.079498	-0.009308	0.006409	-0.021057	0.027771	0.093536	-0.003662	0.049438	-0.021057	0.004578	-0.011902	-0.045624	0.021057	-0.001373	-0.00351	0.019989	-0.054932	0.14236	-0.076294	0.21652	0.027924	0.20401	0.11826	-0.41977	-0.001221	0.72403	0.014343	0.09552	-0.11444	-0.004272	-0.011292
50.233	-0.002441	-0.063477	0.007629	-0.005341	-0.06012	0.0737	0.090027	0.00351	0.006714	-0.10742	0.006714	0.000763	-0.10788	-0.002136	0.011902	-0.005646	0.001526	-0.064392	0.13336	-0.028076	0.1828	0.085602	0.1683	0.054016	-0.35965	-0.005798	0.37415	0.014191	0.08194	-0.11139	-0.001221	-0.011749
50.234	-0.007019	-0.035706	0.063019	0.010986	-0.046997	0.11917	0.07309	0.00412	-0.027618	-0.20737	0.003815	-0.005341	0.055847	0.022583	0.027008	-0.00885	0.027618	-0.027008	0.095062	0.002747	0.20248	0.14877	0.11108	-0.01297	-0.21454	-0.001678	0.047302	0.013123	0.1004	-0.1152	-0.005341	-0.013275
50.235	0.002289	-0.050354	0.07782	-0.002899	-0.052948	0.10422	0.089874	-0.001678	-0.081787	-0.11734	-0.015717	-0.006561	-0.15686	0.005646	0.022278	0.000153	0.056915	-0.014343	0.098419	0.080414	0.20905	0.18921	0.10819	0.031891	-0.13168	-0.00412	-0.77209	0.007629	0.12497	-0.1088	-0.005646	-0.00351
50.236	0.002594	-0.031281	0.015869	0.008087	0.030518	-0.04715	0.069733	-0.003052	-0.026245	0.19058	-0.004883	-0.016785	-0.18433	0.011902	0.020294	-0.028381	0.034485	-0.095215	0.051727	0.06546	0.16327	0.1944	0.020294	0.053864	-0.061188	-0.005493	-1.1707	0.007935	0.098572	-0.051575	-0.004578	-0.010529
50.237	0.011292	0.016479	0.03418	0.001831	0.059357	-0.13596	0.062256	-0.006561	0.010223	0.20691	-0.007782	-0.001678	-0.2562	-0.028381	0.025635	-0.037079	0.02182	-0.082703	0.11246	0.048981	0.046692	0.13809	-0.018005	0.14923	-0.03006	-0.004883	-0.79132	0.003204	0.12375	-0.02182	-0.00412	-0.009766
50.238	0.008087	-0.000916	-0.005341	0.008545	0.046539	-0.26474	0.073547	-0.005798	0.028381	-0.10498	-0.003967	-0.004883	-0.12482	-0.17166	0.007782	-0.042419	-0.001526	-0.085449	0.0737	0.009613	0.093536	0.16266	-0.04776	0.13748	0.00824	-0.004883	-0.37109	0.005188	0.09903	-0.022888	-0.001678	-0.009613
50.239	0.011139	-0.024872	-0.027161	-0.002899	0.016479	-0.079651	0.070496	-0.013123	0.04715	-0.20172	-0.00946	0.00473	0.050964	-0.17975	-0.00885	-0.030518	-0.041656	-0.044556	0.09201	-0.013428	0.19028	0.20706	-0.0177	0.12177	-0.006104	-0.004425	-0.48492	0.004578	0.057831	0.003815	-0.003357	-0.01236
50.24	0.010681	-0.009918	-0.05127	0	-0.015411	0.025177	0.065002	-0.006104	0.040283	-0.26901	-0.003052	0.026855	0.031281	-0.074615	0.016632	0.047455	-0.018463	-0.044556	0.052338	-0.12787	0.21896	0.14816	-0.015564	0.050201	-0.092163	-0.00351	-0.68481	0.001373	0.10223	0.058136	0.001526	-0.011292
50.241	0.002441	-0.004578	-0.008087	0.003204	-0.003662	0.008087	0.070496	-0.005341	0.020294	0.002441	-0.010376	0.022888	-0.082703	0.056305	0.03006	0.062866	0.00061	-0.079193	0.093231	-0.17914	0.23163	0.10864	0.019989	-0.079193	-0.10315	-0.010834	-0.57709	0.006409	0.097198	0.098114	-0.001221	-0.004578
50.242	0.000153	-0.001373	-0.040283	-0.007019	0.011444	0.11215	0.068207	0.003052	0.031281	0.21439	0.006561	0.032959	-0.004883	0.083466	0.024872	0.079041	0.01358	-0.079651	0.10437	-0.16403	0.19134	0.085297	0.031128	-0.062714	-0.084229	-0.005341	-0.32562	0.001526	0.017242	0.034332	0	-0.014801
50.243	-0.001221	-0.016937	-0.084686	0.007935	0.019073	0.14832	0.062561	0.005951	0.000458	0.23315	-0.007477	0.011902	-0.094604	0.010681	0.00946	0.13809	0.008545	-0.039825	0.10941	-0.018311	0.14969	0.086212	0.09964	-0.081177	-0.072327	-0.011597	-0.18066	-0.000305	-0.069275	0.038147	-0.000153	-0.008698
50.244	0.00473	-0.040741	-0.0737	0.010223	0.042877	0.18265	0.071564	-0.004272	0.007935	0.082245	-0.01297	-0.038757	0.15793	-0.05188	0.014954	-0.27893	0.015106	-0.085449	0.071564	0.16571	0.13886	0.069275	0.25284	-0.045624	-0.13626	-0.015564	0.00946	-0.005646	-0.044098	0.018158	-0.001526	-0.011597
50.245	-0.002136	-0.061188	-0.046844	0.009308	0.028839	0.32089	0.097351	0.003052	-0.015259	-0.33829	-0.015564	-0.10086	0.052032	-0.12512	0.046082	0.067749	0.010529	-0.070496	0.082855	0.093079	0.08255	0.10147	0.18784	-0.014801	-0.20111	-0.000916	-0.11017	-0.002441	0.014038	-0.11459	0.000305	-0.002594
50.246	-0.000763	-0.010376	-0.058441	0.006866	0.00885	0.13779	0.08728	0.001678	-0.003052	-0.40146	0.00061	0.04776	-0.12528	-0.2002	0.030518	-0.000153	-0.015259	-0.026093	0.16327	0.11917	0.085144	0.1564	-0.18738	-0.015106	-0.18494	-0.00061	-0.35706	-0.000153	0.056915	-0.18326	0.000916	-0.00061
50.247	-0.000305	0.048218	-0.085449	0.006104	0.00412	0.060425	0.14236	0.004272	0.025635	-0.08728	0.008698	0.044403	-0.16312	-0.25055	0.001678	-0.014801	-0.018463	-0.035248	0.10284	0.068512	0.1088	0.1889	-0.39108	0.078888	0	-0.003357	-0.57556	-0.006714	0.020447	-0.17029	-0.000916	0.000916
